<?xml version="1.0" encoding="UTF-8" standalone="no"?>
<!-- Created with Inkscape (http://www.inkscape.org/) -->

<svg
   xmlns:dc="http://purl.org/dc/elements/1.1/"
   xmlns:cc="http://creativecommons.org/ns#"
   xmlns:rdf="http://www.w3.org/1999/02/22-rdf-syntax-ns#"
   xmlns:svg="http://www.w3.org/2000/svg"
   xmlns="http://www.w3.org/2000/svg"
   xmlns:sodipodi="http://sodipodi.sourceforge.net/DTD/sodipodi-0.dtd"
   xmlns:inkscape="http://www.inkscape.org/namespaces/inkscape"
   width="140.93748"
   height="106.2892"
   viewBox="0 0 37.289711 28.12235"
   version="1.1"
   id="svg1957"
   inkscape:version="0.92.0 r15299"
   sodipodi:docname="grupo elektra.svg">
  <defs
     id="defs1951">
    <clipPath
       id="clipPath1572"
       clipPathUnits="userSpaceOnUse">
      <path
         inkscape:connector-curvature="0"
         id="path1570"
         d="M 198.865,36.874 H 306 v 83.254 H 198.865 Z" />
    </clipPath>
  </defs>
  <sodipodi:namedview
     id="base"
     pagecolor="#ffffff"
     bordercolor="#666666"
     borderopacity="1.0"
     inkscape:pageopacity="0.0"
     inkscape:pageshadow="2"
     inkscape:zoom="5.0622681"
     inkscape:cx="69.968736"
     inkscape:cy="52.644387"
     inkscape:document-units="mm"
     inkscape:current-layer="layer1"
     showgrid="false"
     fit-margin-top="0"
     fit-margin-left="0"
     fit-margin-right="0"
     fit-margin-bottom="0"
     units="px"
     inkscape:window-width="1280"
     inkscape:window-height="744"
     inkscape:window-x="-4"
     inkscape:window-y="-4"
     inkscape:window-maximized="1" />
  <metadata
     id="metadata1954">
    <rdf:RDF>
      <cc:Work
         rdf:about="">
        <dc:format>image/svg+xml</dc:format>
        <dc:type
           rdf:resource="http://purl.org/dc/dcmitype/StillImage" />
        <dc:title></dc:title>
      </cc:Work>
    </rdf:RDF>
  </metadata>
  <g
     inkscape:label="Layer 1"
     inkscape:groupmode="layer"
     id="layer1"
     transform="translate(-43.47555,-157.31805)">
    <g
       id="g2400"
       transform="translate(0.13229325,-0.13228564)">
      <path
         d="m 48.867267,181.22954 c -0.114653,0.19826 -0.03881,0.50447 -0.03881,0.50447 -0.08361,-0.06 -0.284338,-0.16933 -0.510469,-0.16157 -0.168628,0.006 -0.370769,0.0843 -0.50165,0.23742 -0.130528,0.1531 -0.196144,0.34008 -0.196144,0.56092 v 1.77235 h -0.72637 v -3.11185 h 0.72637 v 0.28469 c 0.203552,-0.2286 0.456494,-0.35313 0.79375,-0.35595 0.194027,-10e-4 0.365477,0.0222 0.579261,0.11077 0,0 -0.05327,0.0335 -0.125942,0.15875"
         style="fill:#ea2629;fill-opacity:1;fill-rule:nonzero;stroke:none;stroke-width:0.35277778"
         id="path1576"
         inkscape:connector-curvature="0" />
      <path
         d="m 56.670076,182.58399 c 0,0.68933 0.248356,1.03399 0.745067,1.03399 0.227541,0 0.408164,-0.0892 0.541866,-0.26846 0.13335,-0.17921 0.200025,-0.43462 0.200025,-0.76553 0,-0.6798 -0.247297,-1.01953 -0.741891,-1.01953 -0.227895,0 -0.409223,0.0896 -0.543631,0.26882 -0.134408,0.17921 -0.201436,0.42933 -0.201436,0.75071 m -0.759531,0 c 0,-0.47696 0.137584,-0.86572 0.413103,-1.16558 0.275872,-0.29986 0.639586,-0.44979 1.091495,-0.44979 0.475191,0 0.844197,0.14393 1.107016,0.43215 0.26282,0.28822 0.394406,0.68263 0.394406,1.18322 0,0.49847 -0.134056,0.895 -0.401814,1.18886 -0.267758,0.29422 -0.634294,0.44133 -1.099608,0.44133 -0.475192,0 -0.844903,-0.14852 -1.108781,-0.44556 -0.263878,-0.29704 -0.395817,-0.6918 -0.395817,-1.18463"
         style="fill:#ea2629;fill-opacity:1;fill-rule:nonzero;stroke:none;stroke-width:0.35277778"
         id="path1580"
         inkscape:connector-curvature="0" />
      <path
         d="m 54.459289,183.31717 c -0.147108,0.16051 -0.389114,0.24095 -0.726017,0.24095 -0.177094,0 -0.331964,-0.0536 -0.464255,-0.16052 v -1.64465 c 0.136172,-0.13652 0.2921,-0.20461 0.467078,-0.20461 0.337255,0 0.578555,0.0755 0.724605,0.22649 0.14605,0.15098 0.219075,0.41133 0.219075,0.7814 0,0.34678 -0.07338,0.60043 -0.220486,0.76094 m -0.515761,-2.38831 c -0.2667,0 -0.49142,0.0896 -0.674511,0.26882 v -0.17074 h -0.730603 v 3.64419 c 0,0 0.0028,0.12171 0.0088,0.18591 0.0049,0.0519 0.02081,0.13018 0.02081,0.13018 0.05927,0.26705 0.214489,0.40111 0.466373,0.40111 0.271286,0 0.462844,-0.10654 0.57538,-0.31962 -0.212019,-0.0681 -0.325614,-0.26987 -0.340783,-0.60431 v -0.42721 c 0.188736,0.0917 0.398286,0.13723 0.627944,0.13723 0.476956,0 0.85337,-0.13829 1.128889,-0.41451 0.275872,-0.27658 0.413456,-0.67099 0.413456,-1.18322 0,-1.09855 -0.498475,-1.64783 -1.495778,-1.64783"
         style="fill:#ea2629;fill-opacity:1;fill-rule:nonzero;stroke:none;stroke-width:0.35277778"
         id="path1584"
         inkscape:connector-curvature="0" />
      <path
         d="m 52.019513,183.20869 v -0.43215 l -7.06e-4,3.5e-4 v -1.74978 h -0.73025 v 2.14983 c -0.04692,0.11289 -0.141111,0.21237 -0.28328,0.2981 -0.14217,0.0857 -0.296333,0.12841 -0.461786,0.12841 -0.360186,0 -0.540456,-0.20038 -0.540456,-0.60149 v -1.97485 c 0,0 -0.385233,-0.001 -0.530225,0.11042 -0.159808,0.12347 -0.191558,0.29175 -0.197555,0.38982 -0.0028,0.0494 -0.0025,0.0808 -0.0025,0.0808 v 1.44921 c 0,0.77117 0.363361,1.15676 1.089731,1.15676 0.151694,0 0.318205,-0.031 0.499533,-0.0935 0.180975,-0.0624 0.323145,-0.13723 0.426508,-0.22507 l 0.04198,-0.0441 c 0.06526,0.2413 0.216958,0.36266 0.456494,0.36266 0.271287,0 0.463198,-0.10654 0.575381,-0.31962 -0.2286,-0.0737 -0.3429,-0.30233 -0.3429,-0.6858"
         style="fill:#ea2629;fill-opacity:1;fill-rule:nonzero;stroke:none;stroke-width:0.35277778"
         id="path1588"
         inkscape:connector-curvature="0" />
      <path
         d="m 44.235083,182.58247 c 0,-0.37006 0.07302,-0.63041 0.219075,-0.7814 0.14605,-0.15099 0.387703,-0.22649 0.724606,-0.22649 0.17533,0 0.330905,0.0681 0.46743,0.20462 v 1.64464 c -0.132644,0.10725 -0.287514,0.16087 -0.464608,0.16087 -0.336903,0 -0.578909,-0.0804 -0.726017,-0.2413 -0.147108,-0.16051 -0.220486,-0.41416 -0.220486,-0.76094 m -0.759531,0.0205 c 0,0.51223 0.137937,0.90664 0.413456,1.18322 0.275519,0.27658 0.651933,0.41486 1.128889,0.41486 0.230011,0 0.439208,-0.0459 0.628297,-0.13758 0,0 0.02434,0.10548 0,0.23707 -0.05715,0.31009 -0.320675,0.45684 -0.6223,0.49036 -0.325967,0.0363 -0.53093,-0.0173 -0.53093,-0.0173 0,0 -0.426862,-0.0716 -0.525639,-0.25894 -0.124178,0.12418 -0.27552,0.49707 -0.01235,0.70521 0.167923,0.11888 0.291748,0.15028 0.441678,0.18062 0.207434,0.042 0.439561,0.0617 0.80645,0.004 0.325261,-0.0511 0.703086,-0.2159 0.890059,-0.45896 0.329141,-0.42792 0.28328,-0.95462 0.28328,-0.95462 v -2.95839 h -0.73025 v 0.19156 c -0.183092,-0.17957 -0.408164,-0.26882 -0.674864,-0.26882 -0.997303,0 -1.495778,0.54892 -1.495778,1.64747"
         style="fill:#ea2629;fill-opacity:1;fill-rule:nonzero;stroke:none;stroke-width:0.35277778"
         id="path1592"
         inkscape:connector-curvature="0" />
      <path
         d="m 65.12302,179.77228 0.727781,-0.35137 v 3.73239 c 0,0.38418 0.1143,0.61313 0.343252,0.68686 -0.112536,0.21343 -0.304447,0.32032 -0.576086,0.32032 -0.3302,0 -0.494947,-0.22895 -0.494947,-0.68686 z"
         style="fill:#ea2629;fill-opacity:1;fill-rule:nonzero;stroke:none;stroke-width:0.35277778"
         id="path1596"
         inkscape:connector-curvature="0" />
      <path
         d="m 67.134947,182.25065 h 1.531056 c -0.05045,-0.45614 -0.302684,-0.68404 -0.756709,-0.68404 -0.415572,0 -0.673453,0.2279 -0.774347,0.68404 m 2.200275,0.54716 h -2.226381 c 0.01341,0.24835 0.09878,0.44132 0.256117,0.57926 0.156986,0.13758 0.368653,0.20637 0.634647,0.20637 0.100895,0 0.125236,0.0117 0.280459,-0.0236 0.126294,-0.0289 0.279047,-0.10442 0.450144,-0.0402 0.09066,0.03 0.155222,0.11959 0.208492,0.19826 0.05644,0.0751 0.09984,0.16263 0.09984,0.16263 -0.256117,0.20779 -0.638528,0.31151 -1.146881,0.31151 -0.475191,0 -0.851252,-0.13935 -1.12783,-0.41769 -0.276578,-0.27834 -0.414867,-0.66711 -0.414867,-1.16593 0,-0.49072 0.152047,-0.8883 0.455789,-1.1931 0.303389,-0.3048 0.667808,-0.4572 1.092906,-0.4572 0.451908,0 0.814916,0.13512 1.088319,0.40464 0.273756,0.26987 0.410281,0.61348 0.410281,1.03046 0,0.0892 -0.02011,0.22437 -0.06103,0.40464"
         style="fill:#ea2629;fill-opacity:1;fill-rule:nonzero;stroke:none;stroke-width:0.35277778"
         id="path1600"
         inkscape:connector-curvature="0" />
      <path
         d="m 62.359041,182.25065 h 1.531056 c -0.0508,-0.45614 -0.302684,-0.68404 -0.756709,-0.68404 -0.415572,0 -0.673453,0.2279 -0.774347,0.68404 m 2.200275,0.54716 h -2.226381 c 0.01341,0.24835 0.09878,0.44132 0.255764,0.57926 0.157339,0.13758 0.369006,0.20637 0.634648,0.20637 0.100894,0 0.125588,0.0117 0.280811,-0.0236 0.126294,-0.0289 0.278694,-0.10442 0.450144,-0.0402 0.09066,0.03 0.155222,0.11959 0.208492,0.19826 0.05644,0.0751 0.09984,0.16263 0.09984,0.16263 -0.256117,0.20779 -0.638528,0.31151 -1.146881,0.31151 -0.475544,0 -0.851252,-0.13935 -1.12783,-0.41769 -0.276578,-0.27834 -0.414867,-0.66711 -0.414867,-1.16593 0,-0.49072 0.152047,-0.8883 0.455436,-1.1931 0.303742,-0.3048 0.668161,-0.4572 1.093259,-0.4572 0.451908,0 0.814916,0.13512 1.088319,0.40464 0.273756,0.26987 0.410281,0.61348 0.410281,1.03046 0,0.0892 -0.02011,0.22437 -0.06103,0.40464"
         style="fill:#ea2629;fill-opacity:1;fill-rule:nonzero;stroke:none;stroke-width:0.35277778"
         id="path1604"
         inkscape:connector-curvature="0" />
      <path
         d="m 72.034818,184.14009 c 0,0 -0.162278,0.004 -0.249414,-0.13123 -0.03104,-0.0469 -0.83185,-1.28023 -0.83185,-1.28023 l -0.34925,0.36935 v 1.04211 h -0.727428 v -4.35822 l 0.727428,-0.33584 v 2.77319 l 1.039283,-1.19627 h 0.875948 l -1.053395,1.18145 1.268942,1.93569 z"
         style="fill:#ea2629;fill-opacity:1;fill-rule:nonzero;stroke:none;stroke-width:0.35277778"
         id="path1608"
         inkscape:connector-curvature="0" />
      <path
         d="m 73.505725,181.60274 h -0.881944 l 0.521052,-0.58491 h 0.360892 v -0.63464 l 0.727428,-0.26776 v 0.9024 h 0.855839 v 0.58491 h -0.855839 v 1.36525 c 0,0.22296 0.03493,0.38065 0.105128,0.47307 0.06985,0.0921 0.191911,0.13794 0.366888,0.13794 0.174273,0 0.337256,-0.0473 0.488598,-0.14252 v 0.66922 c -0.168981,0.0582 -0.409223,0.0875 -0.721784,0.0875 -0.310444,0 -0.548922,-0.0882 -0.715786,-0.26353 -0.167216,-0.17533 -0.250472,-0.42545 -0.250472,-0.7493 z"
         style="fill:#ea2629;fill-opacity:1;fill-rule:nonzero;stroke:none;stroke-width:0.35277778"
         id="path1612"
         inkscape:connector-curvature="0" />
      <path
         d="m 77.668432,181.22728 c -0.114653,0.19826 -0.03881,0.50518 -0.03881,0.50518 -0.08396,-0.0603 -0.284691,-0.16969 -0.511175,-0.16193 -0.16898,0.006 -0.371475,0.0847 -0.502355,0.23813 -0.130881,0.1531 -0.196497,0.34043 -0.196497,0.56162 v 1.77518 h -0.727428 v -3.11679 h 0.727428 v 0.28504 c 0.203905,-0.22895 0.456847,-0.35384 0.794455,-0.3563 0.194381,-0.001 0.366184,0.0222 0.58032,0.11077 0,0 -0.05327,0.0335 -0.125942,0.1591"
         style="fill:#ea2629;fill-opacity:1;fill-rule:nonzero;stroke:none;stroke-width:0.35277778"
         id="path1616"
         inkscape:connector-curvature="0" />
      <path
         d="m 79.52556,182.95903 c 0,0.43639 -0.218369,0.65476 -0.654756,0.65476 -0.324202,0 -0.486127,-0.1397 -0.486127,-0.4191 0,-0.37642 0.287161,-0.56445 0.861483,-0.56445 0.06209,0 0.155222,0.0127 0.2794,0.0378 z m 0.724606,0.22119 v -0.66675 c 0,-0.60325 -0.11042,-1.01282 -0.331612,-1.22943 -0.221191,-0.21625 -0.450497,-0.32808 -0.926041,-0.32808 -0.3429,0 -0.5461,0.061 -0.5461,0.061 -0.526345,0.1531 -0.310445,0.68756 -0.310445,0.68756 l 0.0018,-7e-4 -7.05e-4,7e-4 v 0 c 0.006,-0.003 0.01235,-0.005 0.01799,-0.008 l 0.100542,-0.0413 c 0.161219,-0.0579 0.350661,-0.0871 0.568678,-0.0871 0.46355,0 0.695678,0.18309 0.695678,0.54998 -0.11677,-0.0293 -0.217664,-0.0437 -0.303037,-0.0437 -0.498475,0 -0.883002,0.1016 -1.153936,0.30551 -0.27058,0.2039 -0.406047,0.48613 -0.406047,0.84702 0,0.30868 0.09631,0.5468 0.28822,0.71437 0.191911,0.16793 0.456141,0.25189 0.791633,0.25189 0.178505,0 0.349955,-0.0342 0.513644,-0.10337 0.164042,-0.0688 0.279048,-0.15769 0.345017,-0.26634 0.02893,0.0914 0.08537,0.17568 0.168981,0.25329 0.08325,0.0776 0.177447,0.11218 0.282222,0.11642 0.09984,0.004 0.170391,-0.004 0.253294,-0.0363 0.07408,-0.0293 0.140759,-0.0885 0.200731,-0.19367 -0.166864,-0.10654 -0.250472,-0.36725 -0.250472,-0.78282"
         style="fill:#ea2629;fill-opacity:1;fill-rule:nonzero;stroke:none;stroke-width:0.35277778"
         id="path1620"
         inkscape:connector-curvature="0" />
      <path
         d="m 62.176726,167.25294 c 0,0 0.600781,1.85491 1.900414,2.53083 1.125361,0.58561 2.566458,0.69356 3.907366,-0.76588 1.199798,-1.30493 0.837495,-2.74638 0.837495,-2.74638 l 3.212747,-0.62759 c 0,0 0.461786,2.32974 -0.124178,4.49157 0,0 -1.638653,2.08103 -4.343047,2.08103 -2.779889,0 -5.174544,-1.09678 -5.850114,-4.81012 z"
         style="fill:#ea2629;fill-opacity:1;fill-rule:nonzero;stroke:none;stroke-width:0.35277778"
         id="path1624"
         inkscape:connector-curvature="0" />
      <path
         d="m 61.4324,167.56547 c 0,0 1.306336,-1.44745 1.242131,-2.91077 -0.05574,-1.26718 -0.682978,-2.56893 -2.617612,-3.00179 -1.730022,-0.38664 -2.797174,0.6477 -2.797174,0.6477 l -2.149475,-2.46803 c 0,0 1.786819,-1.56422 3.950758,-2.13783 0,0 2.622903,0.37782 3.975453,2.71991 1.389591,2.40736 1.637594,5.02991 -1.241425,7.47184 z"
         style="fill:#ea2629;fill-opacity:1;fill-rule:nonzero;stroke:none;stroke-width:0.35277778"
         id="path1628"
         inkscape:connector-curvature="0" />
      <path
         d="m 62.079571,168.0397 c 0,0 -1.906058,-0.40675 -3.141486,0.38065 -1.069622,0.68192 -1.883833,1.87572 -1.291519,3.76696 0.529872,1.69192 1.95968,2.09832 1.95968,2.09832 l -1.062919,3.09704 c 0,0 -2.2479,-0.76588 -3.826934,-2.35338 0,0 -0.983544,-2.46028 0.368653,-4.80202 1.390297,-2.40735 3.53695,-3.93311 7.091892,-2.6617 z"
         style="fill:#ea2629;fill-opacity:1;fill-rule:nonzero;stroke:none;stroke-width:0.35277778"
         id="path1632"
         inkscape:connector-curvature="0" />
      <path
         id="path1636"
         transform="scale(0.26458333)"
         d="m 254.26562,595.58789 -7.20703,4.22852 2.49414,8.28711 c 14.56267,8.70134 1.17383,22.12695 1.17383,22.12695 0,0 5.95756,-0.23569 9.82422,-5.17969 5.66134,-7.23734 3.49353,-12.73675 2.13086,-15.38476 -1.55733,-3.02533 -5.60156,-5.51758 -5.60156,-5.51758 l -0.86524,-2.63867 z"
         style="fill:#ea2629;fill-opacity:1;fill-rule:nonzero;stroke:none;stroke-width:1.33333337"
         inkscape:connector-curvature="0" />
      <path
         id="path1644"
         transform="scale(0.26458333)"
         d="m 210.15234,614.61328 c -6.82142,0.0567 -9.8102,3.87113 -11.2207,6.06445 -1.84132,2.86001 -1.97461,7.60938 -1.97461,7.60938 l 7.18555,4.54492 c 0.25466,-16.96399 18.57226,-12.08594 18.57226,-12.08594 0,0 -3.1811,-5.03612 -9.39843,-5.91211 -1.1375,-0.161 -2.18958,-0.2288 -3.16407,-0.2207 z m -6.00976,18.21875 -7.18555,-4.54297 -1.85742,2.06641 -4.1543,4.64648 7.26758,4.12696 z"
         style="fill:#ea2629;fill-opacity:1;fill-rule:nonzero;stroke:none;stroke-width:1.33333337"
         inkscape:connector-curvature="0" />
      <path
         id="path1652"
         transform="scale(0.26458333)"
         d="m 228.42578,649.55078 c 0,0 -2.77378,5.27241 -0.42578,11.09375 3.43733,8.52533 9.28715,9.39424 12.25781,9.53711 3.4,0.16399 7.58008,-2.09375 7.58008,-2.09375 l 0.33984,-8.49219 c -14.81866,8.26001 -19.75195,-10.04492 -19.75195,-10.04492 z m 19.41211,18.53711 2.71875,0.57422 6.10156,1.27344 -0.0605,-8.35743 -8.41797,-1.98242 z"
         style="fill:#ea2629;fill-opacity:1;fill-rule:nonzero;stroke:none;stroke-width:1.33333337"
         inkscape:connector-curvature="0" />
    </g>
  </g>
</svg>
